<svg xmlns="http://www.w3.org/2000/svg" width="54.234" height="69.72" viewBox="0 0 54.234 69.72">
  <g id="face" transform="translate(-56.866 0)">
    <path id="Path_557" d="M176.65,275.957a1.089,1.089,0,0,0-1.453-.511,5.325,5.325,0,0,1-5.695-.413,2.525,2.525,0,0,0-2.682-.011,1.089,1.089,0,1,0,.836,2.012l.568-.236a7.514,7.514,0,0,0,7.914.613A1.09,1.09,0,0,0,176.65,275.957Z" transform="translate(-94.403 -237.224)" fill="#363636"/>
    <path id="Path_558" d="M276.8,277.043a1.089,1.089,0,0,0,.836-2.012,2.535,2.535,0,0,0-2.682.011,5.325,5.325,0,0,1-5.695.413,1.089,1.089,0,1,0-.942,1.964,7.514,7.514,0,0,0,7.914-.613Z" transform="translate(-182.128 -237.234)" fill="#363636"/>
    <path id="Path_559" d="M224.574,415.5h-6.587a2.158,2.158,0,0,0-1.481,3.725,6.958,6.958,0,0,0,9.549,0A2.158,2.158,0,0,0,224.574,415.5Zm-6.533,2.179h6.478A4.779,4.779,0,0,1,218.042,417.684Z" transform="translate(-137.317 -358.931)" fill="#363636"/>
    <path id="Path_560" d="M146.223,203.337c.332-.271.789-.68,1.54-1.221a1.089,1.089,0,0,0-1.273-1.768c-.838.6-1.367,1.075-1.662,1.315a1.089,1.089,0,0,0,1.394,1.674Z" transform="translate(-75.647 -172.891)" fill="#363636"/>
    <path id="Path_561" d="M181.344,179.951a1.086,1.086,0,0,0,.462-.1,20.2,20.2,0,0,1,3.386-1.232,1.089,1.089,0,1,0-.56-2.105,22.4,22.4,0,0,0-3.751,1.366A1.09,1.09,0,0,0,181.344,179.951Z" transform="translate(-106.589 -152.444)" fill="#363636"/>
    <path id="Path_562" d="M290.111,178.614a20.2,20.2,0,0,1,3.386,1.232,1.089,1.089,0,1,0,.926-1.972,22.394,22.394,0,0,0-3.751-1.366,1.089,1.089,0,1,0-.56,2.105Z" transform="translate(-200.787 -152.444)" fill="#363636"/>
    <path id="Path_563" d="M235.115,173.333a21.04,21.04,0,0,1,3.611,0,1.089,1.089,0,1,0,.187-2.17,23.185,23.185,0,0,0-3.985,0,1.089,1.089,0,0,0,.187,2.17Z" transform="translate(-152.957 -147.783)" fill="#363636"/>
    <path id="Path_564" d="M340.019,202.115c.754.543,1.214.955,1.54,1.221a1.089,1.089,0,0,0,1.394-1.674c-.318-.259-.833-.718-1.662-1.315a1.089,1.089,0,1,0-1.273,1.768Z" transform="translate(-244.208 -172.891)" fill="#363636"/>
    <path id="Path_565" d="M135.5,313.585a1.089,1.089,0,0,0,.742-1.35c-.343-1.18-.478-1.915-.481-1.935a1.089,1.089,0,0,0-2.145.382c.006.034.152.847.534,2.161A1.089,1.089,0,0,0,135.5,313.585Z" transform="translate(-66.289 -267.274)" fill="#363636"/>
    <path id="Path_566" d="M147.745,348.825c-.425-.871-.82-1.774-1.174-2.684a1.089,1.089,0,0,0-2.031.789c.375.966.795,1.925,1.247,2.851a1.089,1.089,0,0,0,1.958-.956Z" transform="translate(-75.673 -298.41)" fill="#363636"/>
    <path id="Path_567" d="M165.976,385.8a1.089,1.089,0,0,0-1.866,1.124c.377.625.775,1.242,1.185,1.831a1.089,1.089,0,1,0,1.789-1.243C166.7,386.96,166.328,386.384,165.976,385.8Z" transform="translate(-92.506 -332.814)" fill="#363636"/>
    <path id="Path_568" d="M360.214,309.423a1.09,1.09,0,0,0-1.264.88c0,.007-.136.745-.481,1.936a1.089,1.089,0,0,0,2.092.608c.382-1.313.528-2.127.534-2.161a1.089,1.089,0,0,0-.881-1.263Z" transform="translate(-260.499 -267.277)" fill="#363636"/>
    <path id="Path_569" d="M345.094,345.519a1.089,1.089,0,0,0-1.41.621c-.353.91-.748,1.813-1.174,2.684a1.089,1.089,0,1,0,1.958.956c.452-.926.872-1.885,1.247-2.851A1.089,1.089,0,0,0,345.094,345.519Z" transform="translate(-246.656 -298.41)" fill="#363636"/>
    <path id="Path_570" d="M326.185,385.428a1.09,1.09,0,0,0-1.5.371c-.352.585-.725,1.161-1.108,1.712a1.089,1.089,0,1,0,1.789,1.243c.409-.59.808-1.206,1.185-1.831A1.089,1.089,0,0,0,326.185,385.428Z" transform="translate(-230.232 -332.814)" fill="#363636"/>
    <path id="Path_571" d="M105.674,10.079C96.941-1.226,84.24.1,83.816.006H82.738a25.9,25.9,0,0,0-25.87,25.875,24.359,24.359,0,0,0,3.51,13.9,1.083,1.083,0,0,0,1.191.48c1.69,11.829,10.619,29.458,22.394,29.458,11.611,0,20.429-17.1,22.307-28.88,6.816-8.955,6.237-21.914-.6-30.76ZM77.657,17.343c2.589-1.956,5.349-4.135,7.794-6.269a22.908,22.908,0,0,1,17.153,7.9,29.2,29.2,0,0,1,5.879,11.75,21.416,21.416,0,0,1-1.814,5.362c-.076-14.9-14.712-21.7-29.012-18.739Zm31.21,7.749C104.71,15.313,96.749,9.932,87.727,9.01,90.61,6.278,91.932,4.491,92.5,3.338A23.7,23.7,0,0,1,108.867,25.092ZM59.051,27.81A25.128,25.128,0,0,1,66,18.622a1.089,1.089,0,1,0-1.437-1.638,30.949,30.949,0,0,0-5.329,5.928A23.724,23.724,0,0,1,81.984,2.2c-2.369,3.787-6.705,7.21-10.414,9.679a1.089,1.089,0,0,0,1.207,1.813C77.07,10.833,82.136,6.786,84.5,2.185a24.538,24.538,0,0,1,5.848.564c-3.529,5.907-14.1,12.185-19.222,17.393a43.077,43.077,0,0,0-10.1,16.264A21.2,21.2,0,0,1,59.051,27.81ZM83.964,67.541c-11.162,0-20.661-20.148-20.526-31.4A41.38,41.38,0,0,1,73.4,20.959c11.292-4.993,31.089-1.505,31.089,15.24,0,11.316-9.333,31.341-20.526,31.341Z" transform="translate(0 0)" fill="#363636"/>
    <path id="Path_572" d="M135.66,105.978a1.089,1.089,0,1,0-1.089-1.091A1.093,1.093,0,0,0,135.66,105.978Z" transform="translate(-67.125 -89.665)" fill="#363636"/>
  </g>
</svg>
