<svg xmlns="http://www.w3.org/2000/svg" width="49.38" height="70.467" viewBox="0 0 49.38 70.467">
  <g id="head" transform="translate(-76.606 -1)">
    <g id="Group_550" data-name="Group 550" transform="translate(76.606 1)">
      <path id="Path_556" data-name="Path 556" d="M125.43,21.271a10.573,10.573,0,0,0-4.184-5.679c.009-.143.015-.288.015-.433.684-12.358-6.49-14.065-6.8-14.132a1.174,1.174,0,0,0-1.423,1.1c-.011.242-.338,5.921-8.222,5.921H88.378a7.054,7.054,0,0,0-7.047,7.047c0,.167.008.332.019.5a10.573,10.573,0,0,0-4.188,5.681c-1.312,4.208-.3,9.348,3,15.276q-.038,1.064-.038,2.167c0,8.023.788,16.193,6.5,21.619a28.654,28.654,0,0,0,2.925,2.39v7.568a1.174,1.174,0,1,0,2.349,0V64.346l.362.243.879.589.251.169c.143.1.284.2.426.3s.311.221.465.334l.421.31c.416.307.835.617,1.265.913A11.324,11.324,0,0,0,99,68.771a7.511,7.511,0,0,0,2.26.346,7.746,7.746,0,0,0,3.305-.751c.253-.117.5-.243.741-.378a23.99,23.99,0,0,0,2.514-1.7q.3-.223.6-.443c.235-.171.471-.339.71-.5l1.127-.756.428-.287v5.989a1.174,1.174,0,1,0,2.349,0V62.678a28.341,28.341,0,0,0,2.86-2.344c5.715-5.426,6.5-13.6,6.5-21.619q0-1.046-.035-2.056C125.719,30.683,126.75,25.505,125.43,21.271Zm-2.242.7c.874,2.806.478,6.2-1.174,10.111a32.27,32.27,0,0,0-3.422-11.465,7.072,7.072,0,0,0,2.029-2.565A8.326,8.326,0,0,1,123.188,21.969ZM88.378,10.4H104.82c7.266,0,9.546-4.18,10.254-6.56,1.589,1,4.25,3.8,3.839,11.258a4.7,4.7,0,0,1-2.246,4.005,1.173,1.173,0,0,0-.22.092,4.606,4.606,0,0,1-2.231.6H88.378a4.606,4.606,0,0,1-2.27-.62,1.184,1.184,0,0,0-.219-.1,4.7,4.7,0,0,1,2.488-8.68ZM79.389,22.023a8.328,8.328,0,0,1,2.592-3.98,7.084,7.084,0,0,0,1.977,2.533A32.137,32.137,0,0,0,80.529,31.96C78.931,28.121,78.546,24.789,79.389,22.023Zm34.9,36.607a28.077,28.077,0,0,1-3.129,2.51q-.2.14-.4.277l-.231.16-.4.274-.144.1q-.507.344-1.018.683l-.68.457-.467.313c-.21.142-.418.29-.624.438-.257.185-.512.373-.766.561a22.688,22.688,0,0,1-2.149,1.468,5.982,5.982,0,0,1-3.014.9,5.479,5.479,0,0,1-2.3-.533A16.52,16.52,0,0,1,96.1,64.4c-.317-.234-.636-.469-.957-.7-.144-.1-.288-.2-.434-.3l-.309-.208-.8-.539c-.736-.492-1.473-.985-2.2-1.5l-.015-.009a28.025,28.025,0,0,1-3.145-2.521C82.92,53.575,82.473,45.7,82.473,38.714c0-6.97,1.188-12.678,3.53-16.987a7,7,0,0,0,1.769.385l.021,0c.089.007.178.014.268.018s.155,0,.233.006l.083,0h25.837l.067,0c.082,0,.164,0,.246-.006s.163-.01.245-.016l.037,0a7.014,7.014,0,0,0,1.725-.367c2.337,4.308,3.52,10.008,3.52,16.968C120.055,45.7,119.609,53.575,114.284,58.63Z" transform="translate(-76.606 -1)" fill="#363636"/>
    </g>
  </g>
</svg>
