<svg xmlns="http://www.w3.org/2000/svg" width="41.7" height="69.72" viewBox="0 0 41.7 69.72">
  <g id="healthcare-and-medical" transform="translate(-0.5 0)">
    <path id="Path_573" data-name="Path 573" d="M102.653,258.628a1.023,1.023,0,1,0-2.045,0,1.055,1.055,0,0,1-2.11,0,1.023,1.023,0,1,0-2.045,0,3.1,3.1,0,0,0,6.2,0Zm0,0" transform="translate(-82.886 -222.527)" fill="#363636"/>
    <path id="Path_574" data-name="Path 574" d="M172.091,258.628a1.023,1.023,0,1,0-2.045,0,1.055,1.055,0,0,1-2.11,0,1.023,1.023,0,1,0-2.045,0,3.1,3.1,0,0,0,6.2,0Zm0,0" transform="translate(-142.869 -222.527)" fill="#363636"/>
    <path id="Path_575" data-name="Path 575" d="M90.046,351.17c-.525-.3-1.04-.628-1.532-.972a1.023,1.023,0,1,0-1.174,1.674c.542.38,1.111.741,1.689,1.073a1.023,1.023,0,0,0,1.017-1.775Zm0,0" transform="translate(-74.638 -302.351)" fill="#363636"/>
    <path id="Path_576" data-name="Path 576" d="M61.251,325.627a1.023,1.023,0,1,0-1.542,1.344c.439.5.9.991,1.381,1.447a1.023,1.023,0,0,0,1.414-1.478c-.432-.414-.854-.856-1.253-1.313Zm0,0" transform="translate(-50.929 -280.984)" fill="#363636"/>
    <path id="Path_577" data-name="Path 577" d="M122.579,368.177c-.586-.181-1.166-.385-1.722-.606a1.023,1.023,0,1,0-.756,1.9c.607.241,1.238.464,1.876.661a1.023,1.023,0,1,0,.6-1.955Zm0,0" transform="translate(-102.757 -317.455)" fill="#363636"/>
    <path id="Path_578" data-name="Path 578" d="M157.869,369.081c-.455.168-.925.325-1.4.467-.1.029-.2.055-.293.078a1.023,1.023,0,1,0,.46,1.993c.14-.032.281-.07.42-.111.514-.154,1.026-.325,1.521-.508a1.023,1.023,0,0,0-.709-1.919Zm0,0" transform="translate(-133.793 -318.769)" fill="#363636"/>
    <path id="Path_579" data-name="Path 579" d="M245.337,299.077c-.307.534-.635,1.054-.974,1.547a1.023,1.023,0,1,0,1.686,1.159c.37-.538.727-1.1,1.061-1.685a1.023,1.023,0,1,0-1.772-1.021Zm0,0" transform="translate(-210.5 -257.909)" fill="#363636"/>
    <path id="Path_580" data-name="Path 580" d="M221.537,328.771c-.411.446-.844.877-1.288,1.278a1.023,1.023,0,1,0,1.372,1.517c.49-.444.968-.918,1.421-1.41a1.023,1.023,0,0,0-1.5-1.386Zm0,0" transform="translate(-189.534 -283.717)" fill="#363636"/>
    <path id="Path_581" data-name="Path 581" d="M191.8,352.574c-.5.33-1.025.644-1.559.93a1.023,1.023,0,1,0,.969,1.8c.588-.316,1.165-.661,1.717-1.026a1.023,1.023,0,1,0-1.127-1.706Zm0,0" transform="translate(-163.439 -304.417)" fill="#363636"/>
    <path id="Path_582" data-name="Path 582" d="M42.142,24.357a20.492,20.492,0,0,0-3.7-10.466c-.188-.306-.378-.614-.567-.928a.309.309,0,0,1-.035-.238l.211-.789a2.364,2.364,0,0,0-.273-1.846,25.965,25.965,0,0,0-3.436-4.414A1.023,1.023,0,0,0,32.871,7.1a23.926,23.926,0,0,1,3.164,4.066.309.309,0,0,1,.036.241l-.211.788a2.366,2.366,0,0,0,.259,1.822c.193.32.385.633.576.944,1.648,2.683,3.072,5,3.406,9.535.2,3.045-.075,8.338-1.6,10.008-.561-2.325-3.126-9.058-14.4-13.257a32.07,32.07,0,0,1-6.368-3.393c-3.869-2.721-5.577-5.548-5.076-8.4.005-.028.009-.056.012-.085a7.649,7.649,0,0,1,.956-2.7A8.389,8.389,0,0,1,16.9,3.445c1.372,2.065,3.732,3.221,6.06,4.225,2.011.869,4.514,1.949,5.585,3.964a1.023,1.023,0,1,0,1.806-.96c-1.408-2.649-4.4-3.94-6.581-4.882-1.978-.854-3.837-1.75-4.943-3.173.08-.026.16-.053.241-.077A12.288,12.288,0,0,1,29.388,4.159a1.023,1.023,0,0,0,1.13-1.705A14.329,14.329,0,0,0,18.487.582C11.542,2.656,10.706,8.5,10.635,9.138a7.638,7.638,0,0,0-.082,1.958,12.5,12.5,0,0,0-3.477,1.635A4.805,4.805,0,0,0,4.6,17.225c0,.006,0,.011,0,.017s0,.019,0,.034c-.006.2-.009.416-.009.64a2.248,2.248,0,0,0-2.4.979c-.52.7-1.425,2.538-1.654,7a20.98,20.98,0,0,0,.4,5.423A11.666,11.666,0,0,0,3.02,35.806a1.788,1.788,0,0,0,.469.449,31.04,31.04,0,0,1,.288,3.409A17.386,17.386,0,0,0,9.257,51.729a20.339,20.339,0,0,0,6.969,4.464V57.1a.947.947,0,0,1-.577.872L8.177,61.156a5.166,5.166,0,0,0-3.145,4.759V68.7a1.023,1.023,0,0,0,1.023,1.023H36.731A1.023,1.023,0,0,0,37.754,68.7V65.915a5.167,5.167,0,0,0-3.146-4.759l-7.472-3.184a.947.947,0,0,1-.576-.872v-.905a20.339,20.339,0,0,0,6.972-4.465,17.386,17.386,0,0,0,5.479-12.066,29.413,29.413,0,0,1,.253-3.131,3.436,3.436,0,0,0,.466-.367C42.644,33.534,42.2,25.3,42.142,24.357ZM33.806,63.038a3.124,3.124,0,0,1,1.9,2.878v1.759H7.077V65.916a3.124,3.124,0,0,1,1.9-2.878l7.472-3.184a2.988,2.988,0,0,0,1.82-2.753v-.259a17.594,17.594,0,0,0,3.047.505c.025,0,.051,0,.076,0s.051,0,.076,0a17.61,17.61,0,0,0,3.044-.5V57.1a2.988,2.988,0,0,0,1.82,2.753Zm2.912-23.225a1.045,1.045,0,0,0,.24.069A15.412,15.412,0,0,1,32.1,50.269,17.633,17.633,0,0,1,21.394,55.3a17.633,17.633,0,0,1-10.706-5.033,15.991,15.991,0,0,1-4.56-8.005c.219.378.446.749.68,1.109a1.023,1.023,0,0,0,1.714-1.116c-.328-.5-.643-1.031-.937-1.57a1.021,1.021,0,0,0-1.714-.126c-.027-.309-.044-.619-.049-.93,0-.126-.006-.251-.01-.377a1.022,1.022,0,0,0,.488-1.3c-.227-.56-.44-1.143-.637-1.732A1.016,1.016,0,0,0,5.61,36.1a1.8,1.8,0,0,0,.543-.88,21.241,21.241,0,0,1,2.861-6.823,1.023,1.023,0,0,0-1.683-1.163,22.044,22.044,0,0,0-3,6.881,9.108,9.108,0,0,1-1.4-3.222A18.9,18.9,0,0,1,2.573,26c.141-2.739.633-5.048,1.254-5.884.181-.244.241-.224.31-.2a2.1,2.1,0,0,0,.519.106,22.079,22.079,0,0,0,.457,3.737A1.023,1.023,0,0,0,7.1,23.274a32.347,32.347,0,0,1-.461-6c0-.005,0-.011,0-.016A2.852,2.852,0,0,1,8.23,14.419,10.409,10.409,0,0,1,11,13.1c1.06,2.906,3.709,5.25,6.29,6.942-.687.345-1.371.627-1.9.843l-.094.039a18.614,18.614,0,0,0-4.532,2.65,1.023,1.023,0,0,0,1.274,1.6,16.581,16.581,0,0,1,4.035-2.358l.094-.038a21.272,21.272,0,0,0,3.148-1.517,32.619,32.619,0,0,0,4.068,1.908c3.543,1.319,8.375,3.765,11.276,7.928a10.8,10.8,0,0,1,1.954,4.422.96.96,0,0,0,.02.122,1.773,1.773,0,0,0,.388.8,1.014,1.014,0,0,0-.176.31c-.208.587-.433,1.165-.669,1.718a1.022,1.022,0,0,0,.538,1.343Zm0,0" transform="translate(0 0)" fill="#363636"/>
  </g>
</svg>
