<svg xmlns="http://www.w3.org/2000/svg" width="69.629" height="69.629" viewBox="0 0 69.629 69.629">
  <g id="hair_1_" transform="translate(0)">
    <g id="Group_525" transform="translate(0)">
      <g id="Group_524">
        <path id="Path_545" d="M68.721.907,68.71.9A3.118,3.118,0,0,0,66.53,0h0A3.094,3.094,0,0,0,64.6.677C57.192,6.592,49.76,12.7,42.506,18.822q-2.646,2.234-5.293,4.5L17.075,3.183a5.106,5.106,0,0,0-7.212,0L.3,12.748A1.02,1.02,0,0,0,1.741,14.19L8.421,7.511l1.46,1.46L3.2,15.65a1.02,1.02,0,0,0,1.442,1.442l6.679-6.679,1.46,1.46L6.1,18.552a1.02,1.02,0,0,0,1.442,1.442l6.679-6.679,1.46,1.46L9.005,21.454A1.02,1.02,0,0,0,10.448,22.9l6.679-6.679,1.46,1.46-6.679,6.679A1.02,1.02,0,0,0,13.35,25.8l6.679-6.679,1.46,1.46-6.679,6.679A1.02,1.02,0,0,0,16.252,28.7l6.679-6.679,1.46,1.46L17.711,30.16A1.02,1.02,0,0,0,19.154,31.6l6.679-6.679,1.46,1.46-6.679,6.679a1.02,1.02,0,0,0,1.442,1.442l6.679-6.679,1.511,1.511q-4.7,4.091-9.328,8.218s0,0,0,0C20,38.37,19,39.308,18.019,40.2a1.026,1.026,0,0,0-.189,1.5,0,0,0,0,0,0,0,6.816,6.816,0,0,1-.464,9.107l-3.076,3.076a7.133,7.133,0,1,1,.441-9.469,1.022,1.022,0,0,0,1.477.114l.015-.014.01-.008a1.02,1.02,0,0,0-.09-1.586,9.165,9.165,0,0,0-6.96-3.193H9.17a9.175,9.175,0,1,0,2.812,17.91,9.179,9.179,0,0,0,8.731,11.991h.011a9.176,9.176,0,0,0,6.56-15.591l2.083-2.368q5.512-6.133,10.9-12.314L41.8,40.894l-6.679,6.679a1.02,1.02,0,0,0,1.443,1.442l6.679-6.679,1.46,1.46-6.679,6.679a1.02,1.02,0,0,0,1.443,1.442l6.679-6.679L47.608,46.7l-6.679,6.679a1.02,1.02,0,0,0,1.443,1.442l6.679-6.679L50.51,49.6l-6.679,6.679a1.02,1.02,0,0,0,1.443,1.442l6.679-6.679,1.46,1.46-6.679,6.679a1.02,1.02,0,0,0,1.443,1.442l6.679-6.679L56.315,55.4l-6.679,6.679a1.02,1.02,0,0,0,1.443,1.442l6.679-6.679,1.459,1.459-6.679,6.679a1.02,1.02,0,0,0,1.443,1.442l6.679-6.679,1.459,1.459L55.44,67.887a1.02,1.02,0,0,0,1.443,1.442l7.4-7.4h0l2.163-2.163a5.1,5.1,0,0,0,0-7.212L46.286,32.395c7.82-9.123,15.4-18.273,22.665-27.364A3.094,3.094,0,0,0,68.721.907ZM9.863,6.068l1.442-1.442a3.064,3.064,0,0,1,4.327,0L35.661,24.654q-1.938,1.665-3.871,3.341ZM65,54a3.059,3.059,0,0,1,0,4.327l-1.442,1.442L41.609,37.815q1.679-1.932,3.345-3.867ZM28.417,49.674a3.9,3.9,0,0,1-2.032-2.895,1.02,1.02,0,0,0-2.026.239h0a5.56,5.56,0,0,0,2.476,4.032c.072.048.144.1.219.151-.707.807-1.291,1.487-1.961,2.226a1.022,1.022,0,0,0,.114,1.477,7.137,7.137,0,1,1-11.629,5.55,7.292,7.292,0,0,1,2.2-5.179L18.81,52.25A8.857,8.857,0,0,0,21.4,45.975a8.721,8.721,0,0,0-1.421-4.8c.8-.73,1.493-1.378,2.3-2.1l0-.005C44.393,19.356,65.609,2.406,66.008,2.177c-.273.273-40.069,40.052-40.252,40.259a1.02,1.02,0,1,0,1.526,1.355C27.4,43.651,67.159,3.91,67.451,3.619,67.367,3.766,50.941,24.571,28.417,49.674Z" transform="translate(0 0)" fill="#363636"/>
      </g>
    </g>
    <g id="Group_527" transform="translate(4.081 43.799)">
      <g id="Group_526">
        <path id="Path_546" d="M38.712,323.56a5.1,5.1,0,1,0,0,7.211A5.107,5.107,0,0,0,38.712,323.56Zm-1.442,5.768a3.059,3.059,0,1,1-2.164-5.22A3.064,3.064,0,0,1,37.27,329.329Z" transform="translate(-30.006 -322.063)" fill="#363636"/>
      </g>
    </g>
    <g id="Group_529" transform="translate(15.615 55.357)">
      <g id="Group_528">
        <path id="Path_547" d="M119.924,407.051a5.1,5.1,0,0,0-.042,10.205,5.183,5.183,0,0,0,1.986-.4,5.02,5.02,0,0,0,3.156-4.7A5.105,5.105,0,0,0,119.924,407.051Zm1.163,7.919a3.054,3.054,0,1,1-1.163-5.879,3.063,3.063,0,0,1,3.06,3.059A3.018,3.018,0,0,1,121.087,414.97Z" transform="translate(-114.818 -407.051)" fill="#363636"/>
      </g>
    </g>
  </g>
</svg>
