<svg xmlns="http://www.w3.org/2000/svg" width="61.088" height="69.629" viewBox="0 0 61.088 69.629">
  <g id="woman_1_" data-name="woman (1)" transform="translate(-31.404)">
    <g id="Group_531" data-name="Group 531" transform="translate(77.914 34.917)">
      <g id="Group_530" data-name="Group 530">
        <rect id="Rectangle_1153" data-name="Rectangle 1153" width="2.05" height="34.712" fill="#8d5a9b"/>
      </g>
    </g>
    <g id="Group_533" data-name="Group 533" transform="translate(72.836 45.85)">
      <g id="Group_532" data-name="Group 532">
        <rect id="Rectangle_1154" data-name="Rectangle 1154" width="2.05" height="23.779" fill="#8d5a9b"/>
      </g>
    </g>
    <g id="Group_535" data-name="Group 535" transform="translate(87.722 56.492)">
      <g id="Group_534" data-name="Group 534">
        <path id="Path_548" data-name="Path 548" d="M446.314,415.4l-.794,1.89a4.43,4.43,0,0,1,2.72,4.093v7.154h2.05v-7.154A6.475,6.475,0,0,0,446.314,415.4Z" transform="translate(-445.52 -415.399)" fill="#8d5a9b"/>
      </g>
    </g>
    <g id="Group_537" data-name="Group 537" transform="translate(31.404)">
      <g id="Group_536" data-name="Group 536">
        <path id="Path_549" data-name="Path 549" d="M61.265,0A23.806,23.806,0,0,0,37.485,23.779v8.542A17.643,17.643,0,0,0,54.363,49.862v1.066L36.008,56.265a6.455,6.455,0,0,0-4.6,6.211v7.154h2.05V62.475a4.413,4.413,0,0,1,3.139-4.246l19.821-5.763V47.173a13.316,13.316,0,0,0,11.07,0V69.629h2.05V32.056l-.018-.095A16.474,16.474,0,0,0,53.338,18.586H48.624V35.054A13.319,13.319,0,0,0,54.363,46V47.81A15.591,15.591,0,0,1,39.536,32.321V23.779a21.729,21.729,0,0,1,43.458,0v43.8h-.068v2.05h2.118V23.779A23.806,23.806,0,0,0,61.265,0ZM50.673,35.054V20.636h2.665A14.423,14.423,0,0,1,67.483,32.251V44.876a11.275,11.275,0,0,1-16.809-9.822Z" transform="translate(-31.404)" fill="#8d5a9b"/>
      </g>
    </g>
  </g>
</svg>
