<svg id="Group_644" data-name="Group 644" xmlns="http://www.w3.org/2000/svg" width="65.96" height="60.189" viewBox="0 0 65.96 60.189">
  <g id="Group_576" data-name="Group 576" transform="translate(19.221 23.184)">
    <path id="Path_624" data-name="Path 624" d="M195.118,207.689l-7.058-4.976a1.934,1.934,0,0,0-3.046,1.579v3.043H151.128a1.932,1.932,0,1,0,0,3.865h33.887v3.043a1.934,1.934,0,0,0,3.046,1.579l7.058-4.976A1.936,1.936,0,0,0,195.118,207.689Z" transform="translate(-149.195 -202.358)" fill="#4d4d4d"/>
  </g>
  <g id="Group_579" data-name="Group 579">
    <g id="Group_578" data-name="Group 578" transform="translate(0 0)">
      <path id="Path_625" data-name="Path 625" d="M55.457,64.9a1.933,1.933,0,0,0-2.64.705,26.23,26.23,0,1,1,0-26.227,1.933,1.933,0,1,0,3.346-1.935,30.095,30.095,0,1,0,0,30.1A1.933,1.933,0,0,0,55.457,64.9Z" transform="translate(0 -22.397)" fill="#4d4d4d"/>
    </g>
  </g>
</svg>
