<svg xmlns="http://www.w3.org/2000/svg" width="69" height="81.408" viewBox="0 0 69 81.408">
  <g id="shopping-bag" transform="translate(1 1)">
    <path id="Path_410" data-name="Path 410" d="M103.9,18.611H94.446a21.092,21.092,0,0,0-41.892,0H43.1a3.1,3.1,0,0,0-3.1,3.1V76.306a3.1,3.1,0,0,0,3.1,3.1h60.8a3.1,3.1,0,0,0,3.1-3.1V21.713A3.1,3.1,0,0,0,103.9,18.611ZM73.5,6.2A14.912,14.912,0,0,1,88.181,18.611H58.819A14.912,14.912,0,0,1,73.5,6.2Zm27.3,67H46.2V24.815h6.2V34.12a3.1,3.1,0,1,0,6.2,0V24.815H88.389V34.12a3.1,3.1,0,1,0,6.2,0V24.815h6.2Z" transform="translate(-40)" fill="#4d4d4d" stroke="#fff" stroke-width="2"/>
  </g>
</svg>
