<svg xmlns="http://www.w3.org/2000/svg" width="65.187" height="72.556" viewBox="0 0 65.187 72.556">
  <g id="support_1_" data-name="support (1)" transform="translate(0)">
    <g id="Group_571" data-name="Group 571" transform="translate(46.764 56.117)">
      <g id="Group_570" data-name="Group 570">
        <path id="Path_621" data-name="Path 621" d="M357.417,396a1.417,1.417,0,1,0,1.417,1.417A1.418,1.418,0,0,0,357.417,396Z" transform="translate(-356 -396)" fill="#4d4d4d"/>
      </g>
    </g>
    <g id="Group_573" data-name="Group 573">
      <g id="Group_572" data-name="Group 572">
        <path id="Path_622" data-name="Path 622" d="M77.671,51.535,70.935,49.29l-2.418-4.836a15.521,15.521,0,0,0,4.2-8.211l.3-1.808H75.6a4.256,4.256,0,0,0,4.251-4.251V21.257a21.257,21.257,0,0,0-42.513,0v8.928a4.258,4.258,0,0,0,2.834,4.008v1.661A4.256,4.256,0,0,0,44.422,40.1h1.245a15.373,15.373,0,0,0,2.377,3.681c.2.231.41.454.624.672L46.252,49.29l-6.736,2.245C31.684,54.146,26,62.391,26,71.139a1.417,1.417,0,0,0,1.417,1.417H89.77a1.417,1.417,0,0,0,1.417-1.417C91.187,62.391,85.5,54.146,77.671,51.535Zm-.655-21.351A1.419,1.419,0,0,1,75.6,31.6H73.436c.36-2.79.6-5.76.7-8.684,0-.082.005-.163.008-.244h2.875ZM41.588,31.6a1.419,1.419,0,0,1-1.417-1.417V22.674h2.876q.007.222.015.446c0,.005,0,.01,0,.015h0c.1,2.844.336,5.737.688,8.465H41.588Zm2.834,5.668a1.419,1.419,0,0,1-1.417-1.417V34.436h1.162l.3,1.808c.058.344.128.686.21,1.026Zm-1.415-17.43H40.225a18.423,18.423,0,0,1,36.737,0H74.179A14.353,14.353,0,0,0,59.862,5.668H57.325A14.353,14.353,0,0,0,43.008,19.839ZM57.325,8.5h2.537A11.523,11.523,0,0,1,71.347,20.039c0,.446,0,.834-.011,1.188,0,0,0,.009,0,.014l-1.772-.253a22.771,22.771,0,0,1-12.8-6.4,1.417,1.417,0,0,0-1-.415A12.821,12.821,0,0,0,45.9,18.834,11.519,11.519,0,0,1,57.325,8.5ZM47.617,37.27c-.709-2.36-1.521-9.3-1.7-13.753l1.907-2.543A9.975,9.975,0,0,1,55.2,17.021a25.632,25.632,0,0,0,13.964,6.772l2.086.3c-.139,2.96-.424,5.93-.833,8.661v0c-.13.878-.232,1.443-.493,3.022a12.037,12.037,0,0,1-8.543,9.681A11.15,11.15,0,0,1,48.863,40.1h2.889a4.258,4.258,0,0,0,4.008,2.834h2.834a4.251,4.251,0,0,0,0-8.5H55.759a4.253,4.253,0,0,0-4.01,2.834ZM55.64,48.326a14.214,14.214,0,0,0,5.271.119l-2.5,2.648Zm.819,4.827-4.495,4.753a53.994,53.994,0,0,1-3.173-7.357l1.688-3.376Zm10.009-6.46L68.4,50.549a53.978,53.978,0,0,1-3.173,7.359L60.412,53.1ZM54.342,38.687a1.417,1.417,0,0,1,1.417-1.417h2.834a1.417,1.417,0,1,1,0,2.834H55.759A1.419,1.419,0,0,1,54.342,38.687ZM28.891,69.722c.562-7.02,5.234-13.4,11.521-15.5l5.965-1.988a56.806,56.806,0,0,0,4.034,8.749l.008.014h0A56.822,56.822,0,0,0,54.3,66.923l1.743,2.8Zm29.7-1.263-1.922-3.085q-.032-.052-.069-.1A54.031,54.031,0,0,1,53.41,60.5l5.054-5.344,5.325,5.325a53.972,53.972,0,0,1-3.2,4.789C60.515,65.364,60.613,65.219,58.593,68.458Zm2.552,1.263,1.743-2.8a56.8,56.8,0,0,0,3.906-5.971l.021-.038,0,0a56.762,56.762,0,0,0,3.991-8.675l5.965,1.988c6.288,2.1,10.96,8.478,11.521,15.5H61.146Z" transform="translate(-26)" fill="#4d4d4d"/>
      </g>
    </g>
    <g id="Group_575" data-name="Group 575" transform="translate(51.744 58.822)">
      <g id="Group_574" data-name="Group 574">
        <path id="Path_623" data-name="Path 623" d="M397.432,420.253a14.168,14.168,0,0,0-4.012-4.87,1.417,1.417,0,0,0-1.728,2.246,11.317,11.317,0,0,1,3.2,3.89,1.417,1.417,0,0,0,2.536-1.267Z" transform="translate(-391.139 -415.088)" fill="#4d4d4d"/>
      </g>
    </g>
  </g>
</svg>
