<svg xmlns="http://www.w3.org/2000/svg" width="77.436" height="59.368" viewBox="0 0 77.436 59.368">
  <g id="Tracking" transform="translate(0)">
    <path id="Path_587" data-name="Path 587" d="M79.058,38.156,63.036,22.134A3.843,3.843,0,0,0,60.3,21H38.137v2.581H44.59V42.94h2.581V23.581H60.3a1.291,1.291,0,0,1,.914.378l2.2,2.2H57.5a2.581,2.581,0,0,0-2.581,2.581V40.359A2.581,2.581,0,0,0,57.5,42.94H76.855V53.265a1.291,1.291,0,0,1-1.291,1.291H72.88a9.023,9.023,0,0,0-17.862,0H36.743a9.023,9.023,0,0,0-17.862,0H16.2a1.291,1.291,0,0,1-1.291-1.291V41.65H12.325V53.265A3.872,3.872,0,0,0,16.2,57.137h2.684A9.006,9.006,0,0,0,21.5,62.3H2v2.581H63.949a9.042,9.042,0,0,0,8.931-7.744h2.684a3.872,3.872,0,0,0,3.872-3.872v-14.2a1.29,1.29,0,0,0-.378-.912Zm-57.7,17.69A6.453,6.453,0,1,1,27.812,62.3,6.453,6.453,0,0,1,21.359,55.846ZM34.122,62.3a9.006,9.006,0,0,0,2.621-5.162H55.018A9.006,9.006,0,0,0,57.639,62.3Zm29.827,0A6.453,6.453,0,1,1,70.4,55.846,6.453,6.453,0,0,1,63.949,62.3ZM57.5,40.359V28.744H66L76.855,39.6v.756Z" transform="translate(-2 -5.513)" fill="#8d5a9b"/>
    <rect id="Rectangle_1169" data-name="Rectangle 1169" width="1.611" height="1.611" transform="translate(24.171 49.162)" fill="#8d5a9b"/>
    <rect id="Rectangle_1170" data-name="Rectangle 1170" width="3.223" height="1.611" transform="translate(59.622 49.162)" fill="#8d5a9b"/>
    <rect id="Rectangle_1171" data-name="Rectangle 1171" width="6.446" height="3.223" transform="translate(0 44.328)" fill="#8d5a9b"/>
    <rect id="Rectangle_1172" data-name="Rectangle 1172" width="3.223" height="1.611" transform="translate(3.223 39.494)" fill="#8d5a9b"/>
    <rect id="Rectangle_1173" data-name="Rectangle 1173" width="3.223" height="3.223" transform="translate(3.223 34.659)" fill="#8d5a9b"/>
    <path id="Path_588" data-name="Path 588" d="M18.778,42.556A16.778,16.778,0,1,0,2,25.778,16.778,16.778,0,0,0,18.778,42.556Zm0-30.974a14.2,14.2,0,1,1-14.2,14.2,14.2,14.2,0,0,1,14.2-14.2Z" transform="translate(-2 -9)" fill="#8d5a9b"/>
    <path id="Path_589" data-name="Path 589" d="M17.034,36.231a1.29,1.29,0,0,0,.912-.378c.831-.831,8.122-8.282,8.122-13.819A9.034,9.034,0,0,0,8,22.034c0,5.537,7.291,12.987,8.122,13.818A1.291,1.291,0,0,0,17.034,36.231Zm0-20.65a6.461,6.461,0,0,1,6.453,6.453c0,3.312-4.062,8.429-6.453,11.036-2.391-2.607-6.453-7.724-6.453-11.036a6.461,6.461,0,0,1,6.453-6.453Z" transform="translate(-0.256 -7.838)" fill="#8d5a9b"/>
    <path id="Path_590" data-name="Path 590" d="M19.744,20.872a3.872,3.872,0,1,0-3.872,3.872A3.872,3.872,0,0,0,19.744,20.872Zm-5.162,0a1.291,1.291,0,1,1,1.291,1.291A1.291,1.291,0,0,1,14.581,20.872Z" transform="translate(0.906 -6.675)" fill="#8d5a9b"/>
    <rect id="Rectangle_1174" data-name="Rectangle 1174" width="4.834" height="1.611" transform="translate(49.954 39.494)" fill="#8d5a9b"/>
  </g>
</svg>
