<svg id="user" xmlns="http://www.w3.org/2000/svg" width="65.96" height="88.872" viewBox="0 0 65.96 88.872">
  <path id="Path_605" data-name="Path 605" d="M201.736,143.472A1.736,1.736,0,1,0,200,141.736,1.737,1.737,0,0,0,201.736,143.472Zm0,0" transform="translate(-165.284 -115.699)" fill="#4d4d4d"/>
  <path id="Path_606" data-name="Path 606" d="M161.736,143.472A1.736,1.736,0,1,0,160,141.736,1.737,1.737,0,0,0,161.736,143.472Zm0,0" transform="translate(-132.227 -115.699)" fill="#4d4d4d"/>
  <path id="Path_607" data-name="Path 607" d="M81.736,80a1.736,1.736,0,1,0,1.736,1.736A1.737,1.737,0,0,0,81.736,80Zm0,0" transform="translate(-66.114 -66.114)" fill="#4d4d4d"/>
  <path id="Path_608" data-name="Path 608" d="M65.96,32.98A32.98,32.98,0,1,0,32.98,65.96,33.017,33.017,0,0,0,65.96,32.98ZM32.98,62.488a29.317,29.317,0,0,1-15.4-4.348,15.621,15.621,0,0,1,30.8,0A29.317,29.317,0,0,1,32.98,62.488Zm-12.15-32.98a12.15,12.15,0,1,1,12.15,12.15A12.164,12.164,0,0,1,20.829,29.508ZM51.466,55.963A19.11,19.11,0,0,0,40.5,43.2a15.622,15.622,0,1,0-15.036,0A19.109,19.109,0,0,0,14.494,55.963a29.508,29.508,0,1,1,36.972,0Zm0,0" fill="#4d4d4d"/>
  <path id="Path_609" data-name="Path 609" d="M126.389,40.088a26.246,26.246,0,0,0-12.667,3.176,1.735,1.735,0,0,0,1.665,3.046,22.687,22.687,0,0,1,26.784,3.844,1.736,1.736,0,1,0,2.455-2.454,25.853,25.853,0,0,0-18.237-7.611Zm0,0" transform="translate(-93.235 -33.129)" fill="#4d4d4d"/>
  <path id="Path_610" data-name="Path 610" d="M162.044,188.789a5.212,5.212,0,0,1-7.362,0,1.736,1.736,0,0,0-2.456,2.455,8.686,8.686,0,0,0,12.274,0,1.736,1.736,0,0,0-2.456-2.455Zm0,0" transform="translate(-125.383 -155.599)" fill="#4d4d4d"/>
  <path id="Path_611" data-name="Path 611" d="M103.395,426H61.736a1.736,1.736,0,1,0,0,3.472h41.659a1.736,1.736,0,1,0,0-3.472Zm0,0" transform="translate(-49.585 -352.056)" fill="#4d4d4d"/>
  <path id="Path_612" data-name="Path 612" d="M103.395,492H61.736a1.736,1.736,0,0,0,0,3.472h41.659a1.736,1.736,0,1,0,0-3.472Zm0,0" transform="translate(-49.585 -406.599)" fill="#4d4d4d"/>
</svg>
