<svg xmlns="http://www.w3.org/2000/svg" width="206.848" height="189.604" viewBox="0 0 206.848 189.604">
  <g id="checkmark" transform="translate(0 -0.008)">
    <path id="Path_649" data-name="Path 649" d="M94.8,189.612A94.8,94.8,0,1,1,145.944,14.995a6.468,6.468,0,0,1-6.989,10.886,81.862,81.862,0,1,0,37.722,68.93c0-2.7-.129-5.37-.379-8a6.464,6.464,0,0,1,12.868-1.25q.438,4.564.439,9.248a94.912,94.912,0,0,1-94.8,94.8Zm0,0" fill="#8d5a9b"/>
    <path id="Path_650" data-name="Path 650" d="M194.583,129.075a6.416,6.416,0,0,1-4.567-1.9L151.233,88.4a6.466,6.466,0,0,1,9.143-9.145l34.216,34.216,90.225-90.227a6.466,6.466,0,0,1,9.145,9.143l-94.8,94.8a6.476,6.476,0,0,1-4.576,1.887Zm0,0" transform="translate(-89.008 -12.719)" fill="#8d5a9b"/>
  </g>
</svg>
