<svg xmlns="http://www.w3.org/2000/svg" width="73" height="73" viewBox="0 0 73 73">
  <g id="facebook_1_" data-name="facebook (1)" transform="translate(0)">
    <path id="Path_640" data-name="Path 640" d="M68.97,0H4.026A4.029,4.029,0,0,0,0,4.029V68.974A4.029,4.029,0,0,0,4.029,73H68.971A4.029,4.029,0,0,0,73,68.972V4.026A4.029,4.029,0,0,0,68.971,0Zm0,0" transform="translate(0 0)" fill="#4267b2"/>
    <path id="Path_641" data-name="Path 641" d="M227.888,139.3V111.069H237.4l1.426-11.05H227.888V92.982c0-3.192.886-5.367,5.463-5.367h5.8V77.759a77.977,77.977,0,0,0-8.5-.434c-8.412,0-14.169,5.133-14.169,14.563v8.132H207v11.05h9.481V139.3Zm0,0" transform="translate(-177.486 -66.299)" fill="#fff"/>
  </g>
</svg>
