<svg xmlns="http://www.w3.org/2000/svg" width="556.336" height="344.862" viewBox="0 0 556.336 344.862">
  <g id="Group_1" data-name="Group 1" transform="translate(-230 -199)">
    <g id="Logo" transform="translate(229.44 198.072)">
      <path id="Path_1" data-name="Path 1" d="M343.81,130.39a20.959,20.959,0,0,0-24.52,16.66l-.09.49a135.346,135.346,0,0,1-14.92,41.68l-1.32,2.42-1.45,2.3c-.39.61-.78,1.23-1.16,1.84-.63,1.01-1.22,1.97-1.85,2.86l-3.38,4.75c-.37.56-.83,1.12-1.31,1.71l-2.07,2.57a127.351,127.351,0,0,1-15.67,16.29c-22.93,20.2-52.81,32.97-84.13,35.97a144.674,144.674,0,0,1-47.13-3.09c-3.19-.69-6.27-1.62-9.54-2.61l-1.8-.54c-.99-.35-1.99-.7-2.98-1.04-2.84-.99-5.77-2.01-8.65-3.19-2.93-1.09-5.73-2.33-8.69-3.65l-2.4-1.06-5.54-2.76-5.28-2.89a121.744,121.744,0,0,1-36.59-31.43c-.98-1.14-1.86-2.4-2.8-3.73l-3.43-4.85-4.13-6.68c-.51-.78-.96-1.63-1.43-2.52l-2.99-5.56-4.06-8.5c-.64-1.28-1.17-2.63-1.75-4.05-.21-.53-.43-1.07-.64-1.58l-1.5-3.7A54.5,54.5,0,0,1,64.22,162a95.952,95.952,0,0,1,15.38,1.54c5.38.88,10.88,2.24,16.93,3.48A51.081,51.081,0,0,0,84.3,153.39a56.157,56.157,0,0,0-16.7-9.02,52.265,52.265,0,0,0-19.85-2.61,49.14,49.14,0,0,0-36.1,19.08,52.13,52.13,0,0,0-9.02,17.88A56.283,56.283,0,0,0,.69,197.6a51.48,51.48,0,0,0,4.36,17.79c2.42-5.69,4.42-10.99,6.73-15.94a97.394,97.394,0,0,1,7.39-13.59,55.41,55.41,0,0,1,15.62-16.12l.85,2.78c.17.53.33,1.06.49,1.6.46,1.53.94,3.11,1.53,4.61l2.74,7.51,3.21,7.5c.43,1.01.89,2.09,1.43,3.11l3.62,7.19,3.2,5.49c.88,1.52,1.79,3.09,2.79,4.48a135.643,135.643,0,0,0,37.18,37.95l4.2,2.87,7.12,4.35,2.32,1.29c3.03,1.68,6.17,3.42,9.29,4.9,3.02,1.56,6.11,2.95,9.1,4.29.96.43,1.91.86,3,1.35l1.64.66c3.56,1.44,7.25,2.92,10.98,4.08a165.978,165.978,0,0,0,52.77,8.24h.92a191.867,191.867,0,0,0,27.28-2.36,191.8,191.8,0,0,0,26.75-6.55,175.329,175.329,0,0,0,49.43-25.34,163.852,163.852,0,0,0,21.36-18.62l2.71-2.84c.74-.77,1.5-1.56,2.18-2.4l4.56-5.35c1.05-1.25,2.02-2.54,2.96-3.79.47-.62.93-1.24,1.44-1.89l2.12-2.8,2.03-3.01a164.9,164.9,0,0,0,14.14-25.06l2.88-6.57c.6-1.5,1.16-3.02,1.72-4.54l2.02-5.46,3.16-10.3h0a20.972,20.972,0,0,0-16.1-26.72" fill="#fad047"/>
      <path id="Path_2" data-name="Path 2" d="M435.5,69.66a9.135,9.135,0,0,1-6.84-3.15c-5.46-6.47-12.91-13.17-12.09-18.89.75-5.29,7.55-9.86,13.84-14.5a9.5,9.5,0,0,1,11.29.14c6.16,4.8,12.84,9.54,13.49,14.9.69,5.68-6.93,12.2-12.57,18.52a9.194,9.194,0,0,1-7.03,2.98h-.09" fill="#d4e6a8"/>
      <path id="Path_3" data-name="Path 3" d="M552.12,169.06c-6.81,1.49-11.63,3.62-16.23,3.29-6.79-.49-10.94-3.36-10.24-11.47,1.25-14.47-1.01-29.22-8.58-42.11-8.6-14.65-30.98-37.5-50.12-39.75-11.06-1.3-21.5-1.37-28.61,7.98-7.46,9.81-6.95,19.92-.23,30.04,12.1,18.22,29.91,30.86,49.04,42.22,2.92,1.74,5.9,3.4,8.78,5.05-9.55,19.31-33.48,28.91-54.25,22.59a27.042,27.042,0,0,1-6.49-4.47c-4.99-4.61-8.97-9.81-13.6-14.65-7.33-7.67-14.99-9.14-26.73-4.54a115.664,115.664,0,0,0-15.93,8.24c-12.99,7.55-12.91,7.61-22.79-1.1-1.91-1.68-3.92-3.31-5.98-4.89-9.38-7.22-13.17-7.19-21.71.79-15.45,14.43-21.4,31.48-26.72,48.66-.27.88.55,1.91.87,2.88,3.16-3.62,3.95-7.52,5.91-11.1,2.35-4.33,4.86-8.87,8.79-12.46,6.28-5.74,13.66-5.55,20.08-.15a118.515,118.515,0,0,1,8.44,8.49c4.39,4.49,9.37,5.7,16.1,1.7,6.76-4.02,13.75-7.84,20.87-11.51,10.87-5.6,14.6-5.25,23.25,1.68a43.349,43.349,0,0,0,14.2,7.85c30.91,11.83,83.57,4.35,103.95-25.31,5.38,1.99,10.71,4.93,16.41,5.74,4.33.61,10.53-.28,13.23-2.84,1.81-1.73-1.07-7.57-1.71-10.85m-51.69-14.98c-14.78-5.71-35.99-21.29-43.1-31.34-6.29-8.9-5.11-18.56,2.84-23.13,9.48-5.45,30.77,1.71,35.22,10.99,7.09,14.76,9.89,27.61,5.04,43.48" fill="#d4e6a8"/>
      <path id="Path_4" data-name="Path 4" d="M468.5,228.12q-1.92-1.77-3.94-3.41a48.776,48.776,0,0,0-5.5-3.86,50.418,50.418,0,0,0-6-3.1c-27.57-11.94-47.71,13.47-70.7,22.21a103.091,103.091,0,0,1-26.61,6.22,99.594,99.594,0,0,1-18.27.14,83.752,83.752,0,0,1-25.52-6.17c-34.91-14.86-36.81-56.11-23.51-85.03,8.46-18.39,24.26-34.37,45.47-40.45a134.726,134.726,0,0,1,35.77-5.14,157.48,157.48,0,0,1,18.17.9c3.14.33,6.24.88,9.34,1.43,1.83.33,3.68.6,5.52.87,5.19.74,5.54-3.61,5.86-7.17.84-9.18,3.91-18.09,4.28-27.31.39-9.48-4.39-17.02-9.23-25.11-5.11-8.54-10.65-16.86-16.52-24.99-9.27-12.83-17.73-14.73-33.9-9.55-8.22,2.63-15.93,6.61-24.16,9.23-17.74,5.64-35.66,10.81-54.12,16.35a.41.41,0,0,0-.26.59c13.09,22.02,33.3,27.78,59.54,17.72,13.4-5.14,28.18-9.2,42.55-9.82a19.514,19.514,0,0,1,5.39.47,15.085,15.085,0,0,1,4.39,1.79,13.957,13.957,0,0,1,3.38,2.92,15.764,15.764,0,0,1,2.36,3.84,19.433,19.433,0,0,1,1.33,4.57,24.224,24.224,0,0,1,.28,5.1,28.438,28.438,0,0,1-.78,5.43,33.684,33.684,0,0,1-1.85,5.57c-.82,1.91-1.59,4.96-3.29,6.39-2.64,2.21-5.09.01-8.15-1.27-6.2-2.59-12.52-4.95-19.3-5.9a82.054,82.054,0,0,0-27.74,1.03c-18.67,3.82-35.77,13.27-49.34,25.47a102.519,102.519,0,0,0-16.68,19.07c-20.26,30.2-18.1,70.14,3.27,99.68,25.53,35.28,78.82,51.85,122.84,40.31,1.59-.42,3.16-.92,4.71-1.46,18.52-6.47,23.42-9.54,37.82-21.85,3.2-2.74,10.26-10.01,19.45-11.69,4.14-.75,8.5-1.93,16.84-.29.08.02.09-.16.05-.23a17.023,17.023,0,0,0-3.24-3.5" fill="#d4e6a8"/>
      <path id="Path_5" data-name="Path 5" d="M436.04,60.63a8.991,8.991,0,0,1-6.95-3.5c-5.54-7.18-13.12-14.63-12.29-20.98.76-5.88,7.68-10.96,14.06-16.1a9.007,9.007,0,0,1,11.48.15c6.26,5.33,13.05,10.6,13.71,16.55.7,6.31-7.05,13.55-12.78,20.57a9.013,9.013,0,0,1-7.14,3.31Z" fill="#8d5a9b"/>
      <path id="Path_6" data-name="Path 6" d="M554.56,171.05c-6.92,1.65-11.82,4.02-16.49,3.65-6.9-.54-11.12-3.73-10.41-12.74,1.27-16.07-1.02-32.46-8.71-46.78-8.74-16.27-31.49-41.65-50.94-44.16-11.24-1.45-21.85-1.52-29.08,8.86-7.58,10.89-7.06,22.13-.23,33.37,12.3,20.24,30.39,34.28,49.84,46.9,2.97,1.93,6,3.77,8.93,5.61-9.71,21.45-34.02,32.11-55.14,25.1a27.439,27.439,0,0,1-6.6-4.97c-5.07-5.12-9.12-10.9-13.82-16.28-7.45-8.52-15.24-10.15-27.16-5.04-5.77,2.47-11.01,5.87-16.19,9.16-13.2,8.39-13.12,8.45-23.16-1.22-1.94-1.87-3.99-3.67-6.08-5.43-9.53-8.02-13.39-7.98-22.07.88-15.7,16.03-21.75,34.97-27.16,54.06-.28.98.57,2.13.89,3.19,3.21-4.02,4.02-8.35,6-12.33,2.39-4.8,4.94-9.85,8.93-13.84,6.39-6.37,13.88-6.17,20.41-.17a126.728,126.728,0,0,1,8.58,9.43c4.46,4.99,9.52,6.33,16.36,1.89,6.87-4.46,13.98-8.71,21.21-12.78,11.04-6.22,14.84-5.83,23.63,1.87A43.241,43.241,0,0,0,420.53,208c31.42,13.14,84.93,4.84,105.65-28.12,5.47,2.21,10.89,5.48,16.67,6.37,4.41.68,10.7-.31,13.44-3.16,1.85-1.92-1.07-8.39-1.73-12.04m-52.53-16.64c-15.02-6.35-36.58-23.65-43.8-34.81-6.4-9.89-5.19-20.62,2.89-25.7,9.64-6.05,31.27,1.9,35.8,12.21,7.19,16.39,10.04,30.67,5.11,48.3" fill="#8d5a9b"/>
      <path id="Path_7" data-name="Path 7" d="M469.58,236.66c-1.3-1.31-2.63-2.58-4.01-3.78a49.871,49.871,0,0,0-5.59-4.29,50.945,50.945,0,0,0-6.09-3.45c-28.02-13.27-48.49,14.96-71.85,24.68A98.068,98.068,0,0,1,355,256.73a92.136,92.136,0,0,1-18.56.15,78.922,78.922,0,0,1-25.93-6.86c-35.48-16.5-37.41-62.32-23.89-94.46,8.59-20.43,24.65-38.18,46.21-44.94a126.25,126.25,0,0,1,36.35-5.71,145.911,145.911,0,0,1,18.46,1c3.19.37,6.34.98,9.49,1.59,1.86.36,3.74.67,5.61.96,5.28.82,5.63-4.02,5.96-7.97.85-10.19,3.97-20.09,4.35-30.33.39-10.54-4.46-18.91-9.38-27.89-5.19-9.49-10.82-18.73-16.79-27.76C377.45.26,368.85-1.85,352.42,3.9c-8.36,2.92-16.19,7.34-24.55,10.25-18.03,6.27-36.24,12.01-55,18.17a.463.463,0,0,0-.26.65c13.31,24.46,33.84,30.86,60.51,19.68,13.62-5.71,28.64-10.22,43.24-10.91a18.393,18.393,0,0,1,5.48.52,14.657,14.657,0,0,1,4.46,1.99,14.909,14.909,0,0,1,3.44,3.24,17.944,17.944,0,0,1,2.4,4.27,22.807,22.807,0,0,1,1.35,5.08,29.868,29.868,0,0,1,.29,5.67,36.193,36.193,0,0,1-.79,6.04,40.519,40.519,0,0,1-1.88,6.19c-.83,2.13-1.61,5.51-3.35,7.09-2.68,2.45-5.17.01-8.28-1.41-6.3-2.88-12.73-5.5-19.62-6.55a76.468,76.468,0,0,0-28.2,1.15c-18.97,4.24-36.35,14.74-50.14,28.29a111.652,111.652,0,0,0-16.95,21.18c-20.59,33.55-18.4,77.92,3.33,110.73,25.95,39.19,80.11,57.59,124.84,44.78,1.62-.46,3.21-1.03,4.78-1.63,18.82-7.18,23.8-10.6,38.44-24.27,3.26-3.04,10.42-11.12,19.76-12.98,4.21-.84,8.64-2.14,17.11-.33.08.02.09-.18.05-.25a18.293,18.293,0,0,0-3.3-3.88" fill="#8d5a9b"/>
      <path id="Path_8" data-name="Path 8" d="M119.65,318.8H105.19a1.827,1.827,0,0,0-1.85,1.85v23.64a1.5,1.5,0,0,0,1.5,1.5h.71a1.5,1.5,0,0,0,1.5-1.5V334.15h8.73a1.5,1.5,0,0,0,1.5-1.5v-.7a1.5,1.5,0,0,0-1.5-1.5h-8.73v-7.94h12.61a1.5,1.5,0,0,0,1.5-1.5v-.71a1.513,1.513,0,0,0-1.51-1.5" fill="#59595b"/>
      <path id="Path_9" data-name="Path 9" d="M194.01,319.91a1.866,1.866,0,0,0-3.39-.01l-10.24,23.3-.21.49a1.5,1.5,0,0,0,1.38,2.09h.78a1.5,1.5,0,0,0,1.42-1.02l8.56-19.5,8.51,19.36.05.15a1.505,1.505,0,0,0,1.42,1.02h.78a1.5,1.5,0,0,0,1.38-2.09Z" fill="#59595b"/>
      <path id="Path_10" data-name="Path 10" d="M286.87,343.38c-1.71-5.48-3.04-8.28-4.53-10.09a7.641,7.641,0,0,0,4.59-6.79c0-4.25-3.82-7.71-8.53-7.71l-10.23.04a1.827,1.827,0,0,0-1.85,1.85l-.02,11.51-.02.34a1.5,1.5,0,0,0,.01.3l-.02,11.46a1.5,1.5,0,0,0,1.5,1.5h.7a1.5,1.5,0,0,0,1.5-1.5V334.15h7.84c1.85,1.32,3.23,3.01,5.46,10.33.02.05.03.1.05.15l.11.25a1.509,1.509,0,0,0,1.38.91h.74a1.5,1.5,0,0,0,1.44-1.94Zm-8.42-12.94h-1.31l-7.14.02v-7.97h8.41c2.66,0,4.82,1.8,4.82,4,0,2.18-2.14,3.95-4.78,3.95" fill="#59595b"/>
      <path id="Path_11" data-name="Path 11" d="M361.2,319.92a1.867,1.867,0,0,0-3.39-.01l-10.23,23.3-.21.49a1.5,1.5,0,0,0,1.38,2.09h.78a1.483,1.483,0,0,0,1.42-1.03l8.56-19.5,8.51,19.36.05.14a1.5,1.5,0,0,0,1.42,1.03h.78a1.5,1.5,0,0,0,1.38-2.09Z" fill="#59595b"/>
      <path id="Path_12" data-name="Path 12" d="M452.63,318.8h-.71a1.5,1.5,0,0,0-1.5,1.5v10.14H437.19V320.3a1.5,1.5,0,0,0-1.5-1.5h-.71a1.5,1.5,0,0,0-1.5,1.5v23.99a1.5,1.5,0,0,0,1.5,1.5h.71a1.5,1.5,0,0,0,1.5-1.5V334.15h13.23v10.14a1.5,1.5,0,0,0,1.5,1.5h.71a1.5,1.5,0,0,0,1.5-1.5V320.3a1.5,1.5,0,0,0-1.5-1.5" fill="#59595b"/>
    </g>
  </g>
</svg>
