<svg id="linkedin" xmlns="http://www.w3.org/2000/svg" width="56.133" height="56.133" viewBox="0 0 56.133 56.133">
  <path id="Path_644" data-name="Path 644" d="M44.753,45.992v0h.014V25.4c0-10.071-2.168-17.829-13.942-17.829a12.223,12.223,0,0,0-11.009,6.051h-.164V8.514H8.489V45.99H20.113V27.433c0-4.886.926-9.61,6.977-9.61,5.962,0,6.051,5.576,6.051,9.924V45.992Z" transform="translate(11.366 10.141)" fill="#0077b5"/>
  <path id="Path_645" data-name="Path 645" d="M.4,7.977H12.034V45.453H.4Z" transform="translate(0.53 10.68)" fill="#0077b5"/>
  <path id="Path_646" data-name="Path 646" d="M6.741,0a6.772,6.772,0,1,0,6.741,6.741A6.743,6.743,0,0,0,6.741,0Z" fill="#0077b5"/>
</svg>
