<svg xmlns="http://www.w3.org/2000/svg" width="65.919" height="56.083" viewBox="0 0 65.919 56.083">
  <path id="Path_120" data-name="Path 120" d="M0,7.121A5.248,5.248,0,0,1,5.246,1.875H59.673a5.246,5.246,0,1,1,0,10.492H5.246A5.248,5.248,0,0,1,0,7.121ZM59.673,24.17H5.246a5.246,5.246,0,1,0,0,10.492H59.673a5.246,5.246,0,1,0,0-10.492Zm-24.882,22.3H5.246a5.246,5.246,0,1,0,0,10.492H34.791a5.246,5.246,0,1,0,0-10.492Z" transform="translate(0.5 -1.375)" fill="#996ca6" stroke="#fff" stroke-width="1"/>
</svg>
