<svg xmlns="http://www.w3.org/2000/svg" width="71.385" height="58" viewBox="0 0 71.385 58">
  <path id="twitter" d="M71.385,54.866a30.512,30.512,0,0,1-8.432,2.311,14.552,14.552,0,0,0,6.438-8.089,29.246,29.246,0,0,1-9.28,3.542A14.633,14.633,0,0,0,34.8,62.638a15.069,15.069,0,0,0,.339,3.337A41.423,41.423,0,0,1,4.97,50.668a14.638,14.638,0,0,0,4.5,19.559,14.453,14.453,0,0,1-6.612-1.8v.161A14.7,14.7,0,0,0,14.58,82.965a14.606,14.606,0,0,1-3.837.482,12.94,12.94,0,0,1-2.771-.25A14.774,14.774,0,0,0,21.647,93.392,29.405,29.405,0,0,1,3.5,99.633a27.409,27.409,0,0,1-3.5-.2A41.2,41.2,0,0,0,22.45,106C49.38,106,64.1,83.692,64.1,64.356c0-.647-.022-1.272-.054-1.892A29.2,29.2,0,0,0,71.385,54.866Z" transform="translate(0 -48)" fill="#03a9f4"/>
</svg>
