<svg xmlns="http://www.w3.org/2000/svg" width="73" height="51.112" viewBox="0 0 73 51.112">
  <g id="youtube" transform="translate(0 0)">
    <path id="Path_642" data-name="Path 642" d="M71.5,8a9.146,9.146,0,0,0-6.434-6.434C59.35,0,36.5,0,36.5,0S13.65,0,7.937,1.5A9.333,9.333,0,0,0,1.5,8C0,13.71,0,25.556,0,25.556S0,37.462,1.5,43.114a9.148,9.148,0,0,0,6.434,6.434C13.71,51.112,36.5,51.112,36.5,51.112s22.85,0,28.562-1.5A9.146,9.146,0,0,0,71.5,43.174C73,37.462,73,25.616,73,25.616S73.06,13.71,71.5,8Zm0,0" fill="red"/>
    <path id="Path_643" data-name="Path 643" d="M204.969,124.372l19-10.944-19-10.944Zm0,0" transform="translate(-175.745 -87.872)" fill="#fff"/>
  </g>
</svg>
